M48
;-----Modified file for drilling PCBs with carbide copper: made by thomas lawley@ TEDI-london -----*% 
; ------- replaces all tool changes with one 1mm tool (T1)-------*%
FMAT,2
ICI,OFF
METRIC,TZ,000.000
T1C1.000
%
G90
M71
T1
X52070Y22860
X52070Y15240
X52070Y11430
X52070Y19050
X52070Y7620
X43180Y23590
X43180Y21050
X43180Y18510
X43372Y10160
X43328Y7620
X22860Y22130
X33020Y22130
X23810Y16240
X23810Y13700
X23810Y11160
X23810Y8620
X32070Y8620
X32070Y11160
X32070Y13700
X32070Y16240
X8350Y21590
X8350Y24130
X8180Y9430
X8180Y6890
M30